<?xml version="1.0" encoding="UTF-8"?>
<svg width="1180px" height="520px" viewBox="0 0 1180 520" version="1.1" xmlns="http://www.w3.org/2000/svg" xmlns:xlink="http://www.w3.org/1999/xlink">
    <title>Genshin Impact</title>
    <g stroke="none" stroke-width="1" fill="none" fill-rule="evenodd">
        <g transform="translate(374.500000, 58.500000)" fill="#FFFFFF" fill-rule="nonzero">
            <path d="M118.8478,68.252832 C117.5542,68.213912 116.25068,68.375449 114.99818,68.747952 C95.65819,73.397952 76.48846,78.858807 57.77846,85.628809 C43.79846,90.628812 30.15727,96.787542 17.80727,105.07754 C12.78727,108.45754 7.9178,112.05871 3.3478,116.02871 C2.2678,116.97871 1.07846,117.97842 0.77846,119.47842 C2.23846,128.49842 10.82819,133.35832 18.24818,137.12832 C30.43819,142.73832 44.17733,145.95789 57.61733,144.43789 C53.61733,141.03789 48.05729,140.49867 43.82729,137.48868 C42.10729,136.19868 42.06805,133.87818 41.60805,131.98818 C37.47805,132.80818 33.55742,134.38828 29.46743,135.33828 C33.23742,133.01828 37.33795,131.30797 41.25795,129.26797 C62.21795,120.27797 84.87731,116.40754 107.34731,113.32754 C123.00731,111.61754 138.9976,111.07756 154.1476,106.34756 C152.9176,102.94756 152.29736,97.958127 147.90736,97.428124 C138.46736,92.498127 133.94844,82.337719 128.50844,73.757719 C126.51344,70.292719 122.72858,68.369554 118.8478,68.252832 L118.8478,68.252832 Z"></path>
            <path d="M312.75646,68.266017 C309.75804,68.220117 306.76284,69.101742 304.61784,71.287992 C301.58784,74.447989 299.82744,78.527637 297.50746,82.177639 C294.18746,87.957642 289.8984,93.318364 284.2184,96.918364 C282.7584,97.878364 280.53859,97.698147 279.66859,99.448144 C278.3686,101.58815 277.53754,104.00889 277.08754,106.45889 C292.25754,110.97889 308.15769,111.4581 323.76774,113.4081 C348.52771,116.5281 373.56804,121.06817 396.12804,132.21816 C398.03806,133.25817 399.98806,134.29758 401.89809,135.36758 C397.78809,134.30758 393.74836,132.9675 389.67834,131.7875 C389.00836,133.8275 388.93764,136.39764 386.93761,137.67764 C382.76761,140.48764 377.31871,141.00885 373.53871,144.41885 C379.95871,145.27885 386.46729,144.67867 392.80726,143.48868 C405.14724,141.08868 417.72744,136.49883 426.73741,127.39883 L426.84729,127.43833 C428.82729,124.76833 429.90729,121.61847 430.30726,118.32847 C415.86729,104.95846 398.40826,95.148037 380.09829,88.138034 C359.48829,80.188034 338.20869,74.098019 316.76866,68.868014 C315.48429,68.499269 314.11944,68.286817 312.75646,68.265967 L312.75646,68.266017 Z"></path>
            <path d="M215.56996,0.00137037 C214.70246,-0.03110463 213.83738,0.51291536 213.67738,1.7079128 C210.11738,13.437913 206.94865,25.568188 200.22865,35.988185 C197.80865,39.828185 194.31758,42.877797 190.37758,45.087792 C180.85758,50.527797 170.23852,53.537757 159.83851,56.79776 C158.19852,57.227757 156.86861,58.29791 155.68861,59.457912 C156.88861,60.45791 158.13763,61.477895 159.68764,61.937892 C170.86764,65.507892 182.44765,68.628439 192.45766,74.998437 C198.38766,78.658437 201.85795,84.958032 204.75795,91.078032 L204.84725,91.078032 C208.55726,99.618027 211.0877,108.5784 213.80771,117.4584 C214.5777,120.0184 217.64833,118.52836 217.69833,116.41836 C219.97833,107.89836 222.85743,99.567814 226.02743,91.357812 L225.80771,90.768949 L226.49765,90.568264 C228.37765,87.348267 229.85786,83.878632 232.21786,80.948637 C235.10786,76.958637 239.38804,74.358754 243.64804,72.068749 C245.19803,71.328754 246.76847,70.588302 248.33846,69.858304 C255.78847,66.768304 263.49735,64.388457 271.19735,62.018457 C272.71736,61.34846 275.24819,60.888612 274.80819,58.678617 C273.4082,57.508617 271.66835,56.8883 269.96835,56.358305 C259.84835,53.268305 249.57851,50.20832 240.3785,44.878325 C236.42851,42.638322 233.02755,39.477582 230.64755,35.61758 C224.12755,25.277578 220.9386,13.347718 217.4786,1.7577203 C217.3086,0.64271786 216.43741,0.03386787 215.56991,0.00137037 L215.56996,0.00137037 Z"></path>
        </g>
        <g transform="translate(29.500000, 135.500000)" fill="#FFFFFF" fill-rule="nonzero">
            <path d="M107.16128,0.108794879 C100.04009,0.067994 92.91743,0.728204 85.928368,2.117579 C61.658368,6.997582 39.777643,21.428362 24.687644,40.91836 C16.347644,51.73836 9.8874663,63.99797 5.7574713,77.01797 C1.4674714,90.53797 -0.47268857,104.80842 0.09731142,118.97842 C0.42731141,126.50842 1.3375114,134.0183 3.0475114,141.3583 C4.2975064,146.8683 5.9474088,152.27826 7.9474113,157.56826 L8.0572713,157.61806 C10.917276,165.47807 14.857589,172.91789 19.377584,179.93789 C20.047589,180.59789 20.378174,182.14758 21.478169,182.11758 L20.978661,182.2377 C27.158661,191.21769 34.698366,199.23853 43.178368,206.09853 L43.468408,206.10883 C51.378403,212.67883 60.488248,217.76873 70.058248,221.50873 C83.598253,226.88873 98.308505,228.91817 112.8185,228.17816 C136.3885,227.29817 160.56813,222.66803 180.93813,210.28803 C187.17813,207.06803 192.79836,202.48791 197.67837,197.41791 C197.70837,192.39791 197.70747,187.37811 197.75747,182.3681 C197.74747,174.48811 197.88862,166.60871 197.68857,158.73872 C197.98857,153.58871 197.17741,148.22881 199.25742,143.33881 L199.07724,143.57758 C201.18724,139.62758 204.49867,136.30785 208.53867,134.35785 C212.20867,132.33786 216.84826,132.30807 220.11826,129.57807 C220.08826,129.02807 220.01788,127.92788 219.98788,127.37787 C217.26789,126.99786 214.52794,127.14762 211.79794,127.13762 C178.47794,127.15762 145.15847,127.12762 111.83847,127.15812 C109.85847,126.64812 107.37732,128.49777 108.90732,130.54778 C111.26732,132.82778 114.81822,133.14786 117.82822,134.12785 C126.82822,135.99786 135.57865,140.18881 141.26865,147.60881 C143.05864,151.02881 144.85751,154.61756 144.85751,158.57756 C144.97751,170.30756 144.75811,182.02871 144.93811,193.75871 C144.50811,199.77871 144.4783,206.02783 141.88831,211.60783 C137.16831,216.77783 129.45797,214.57787 123.29797,214.89787 C112.67797,213.31787 102.67786,208.53787 94.677855,201.39787 C87.237855,194.80787 81.237998,186.70891 76.567995,177.95891 C72.407993,170.0189 69.237608,161.59817 66.917603,152.94816 C65.697608,147.90816 64.717546,142.81793 63.857543,137.70793 C62.797546,128.58793 62.258093,119.40771 62.668096,110.23772 C63.338093,98.71772 65.218111,87.27768 68.438116,76.19768 L68.577271,76.18868 C72.167273,64.09868 77.807505,52.61823 85.31751,42.47823 C90.17751,36.53823 95.558445,30.92823 102.02844,26.72823 C112.67845,19.498232 126.28856,16.457319 138.89856,19.537314 C152.50856,22.667319 163.7986,31.97808 172.1886,42.81808 C177.6386,50.12808 182.00761,58.18765 185.4176,66.62765 C186.9176,70.56765 188.3386,74.53739 189.4386,78.61739 C190.1986,81.10739 190.52725,83.94831 192.55725,85.80831 C195.90725,79.54831 195.20766,72.14757 195.97766,65.29757 C196.35766,58.41757 196.52869,51.52767 196.5387,44.64767 C196.28869,37.71767 196.66786,30.55816 194.42785,23.89816 C181.98786,24.21815 170.17834,19.698309 159.42835,13.808312 C143.54397,4.924562 125.35984,0.219834 107.16126,0.108794879 L107.16128,0.108794879 Z"></path>
            <path d="M211.67641,71.84268 C211.10376,71.83238 210.53065,71.83868 209.95815,71.85878 C214.37815,76.24879 220.35733,79.24863 223.36733,84.94863 C227.62733,93.06863 227.64794,102.53841 227.48793,111.47841 C227.59794,119.05841 227.49793,126.63865 227.52743,134.21865 C227.54743,142.36864 227.52743,150.50785 227.52743,158.64784 C231.74742,154.50784 236.27723,150.66888 241.07723,147.20888 C247.72723,142.43888 254.81735,138.31847 262.19735,134.78847 C262.18735,127.33847 262.18835,119.88814 262.18835,112.44814 C262.28835,108.18814 261.98751,103.91885 262.32752,99.66884 C262.82751,95.66885 266.78795,92.71775 270.76794,93.04775 C279.07794,93.07775 287.38812,92.96805 295.69812,93.11805 C302.62812,93.32806 309.128,96.43759 314.328,100.88758 C320.668,106.82758 325.03845,114.56891 327.78845,122.74891 C328.05845,122.42891 328.59804,121.76813 328.86804,121.44813 C329.85804,114.49813 328.65777,107.39819 327.58777,100.50819 C326.18776,93.93819 324.32824,87.46882 322.06823,81.14881 C297.91823,81.16881 273.68783,81.41889 249.64783,78.72889 C238.59782,77.22889 227.67845,74.8579 216.78845,72.4579 C215.10845,72.0529 213.39412,71.8736 211.67615,71.84266 L211.67641,71.84268 Z"></path>
            <path d="M305.14516,130.156545 C302.67599,130.16464 300.17313,130.46074 297.79751,130.65762 C273.7275,133.78762 250.57745,143.86761 231.73745,159.15762 C225.40745,164.68761 219.67794,170.89839 214.73793,177.70839 C210.64794,183.5784 206.91801,189.72873 204.06801,196.29873 C211.01802,191.68873 218.27815,187.56846 225.70815,183.76845 C226.30815,183.49845 226.91774,183.22865 227.53774,182.96865 C227.52774,184.17865 227.52744,185.38879 227.52744,186.60879 C228.00744,192.74879 226.70781,198.77772 224.6578,204.50772 L224.93759,205.17861 L224.10849,205.42764 C219.82849,213.97764 212.13831,219.92836 205.17831,226.16836 C210.49831,226.32836 215.59864,224.62857 220.76865,223.63857 C234.58864,220.67857 248.748,219.68789 262.858,219.68789 C284.608,219.70789 306.36825,219.64869 328.11825,219.71869 C330.86825,212.65868 332.92815,205.34818 334.51815,197.94818 C335.51816,192.19818 336.0977,186.36851 336.05771,180.53851 C335.9177,179.04851 336.11821,176.87855 334.34823,176.32855 C331.64823,184.15855 327.29735,191.42779 321.44735,197.29779 C315.35735,203.17779 307.19807,206.9879 298.68808,207.1679 C289.03808,207.2279 279.38862,207.2182 269.74863,207.1782 C267.35862,207.2982 265.45761,205.73812 263.70761,204.34813 C262.92761,202.50812 262.05857,200.62836 262.18857,198.58836 C262.14857,193.38835 262.20807,188.19828 262.16807,183.00828 C262.22807,178.58828 262.17857,174.16877 262.18857,169.75876 C263.72856,169.35877 265.26747,168.96835 266.81748,168.58836 C270.17748,167.83836 273.55833,167.13777 276.94833,166.48777 C294.38833,163.39777 312.10721,162.01771 329.80721,161.92771 C330.82721,161.85771 331.82772,161.6882 332.82773,161.4282 C331.74773,158.4482 329.85757,155.78857 327.16757,154.05857 C323.95757,152.16857 320.17772,151.40764 317.07773,149.34763 C312.20772,145.18763 313.03854,137.98889 314.16854,132.37889 C311.44042,130.61264 308.31976,130.14615 305.14511,130.156545 L305.14516,130.156545 Z"></path>
            <path d="M461.34291,81.1224426 C451.11041,81.1224426 440.87858,81.16346 430.64858,81.24844 C429.10858,84.26844 433.39793,85.01809 435.23793,86.13808 C442.58793,89.33809 444.47727,98.23867 443.80727,105.48868 C443.83727,110.04868 443.75797,114.60885 443.83797,119.16885 C443.82797,131.47885 443.76747,143.78756 443.81747,156.09756 C443.84747,159.75756 443.82747,163.41803 443.80717,167.07803 C442.27717,165.13803 440.74781,163.18795 439.21781,161.24795 C433.26781,153.49795 427.15731,145.85807 421.19731,138.11806 C417.4873,133.40806 413.79723,128.67889 410.11723,123.95889 C406.70722,119.58889 403.28848,115.23758 399.89848,110.86758 C392.17848,100.94758 384.40803,91.07762 376.68803,81.15762 C364.31803,81.20762 351.93742,81.00844 339.56743,81.24842 L339.52793,83.52772 C342.56793,85.95772 346.93858,86.63804 349.18858,90.11804 C354.04858,96.15805 352.42815,104.24879 352.74814,111.37879 C352.73814,117.73879 352.65794,124.08787 352.73784,130.43787 C352.68784,136.13787 352.74854,141.84871 352.70854,147.54871 C352.74854,153.10871 352.69754,158.67767 352.72754,164.23768 C352.68754,172.35767 352.77774,180.47803 352.67774,188.59803 C352.56775,194.58802 353.3772,200.72848 351.6172,206.55847 C350.4472,208.81847 349.22802,211.16871 347.20802,212.79871 C345.10802,214.60871 342.32761,215.27773 340.03761,216.79774 C338.89761,217.37773 339.40728,218.76793 339.44728,219.74793 C359.91728,219.64793 380.39818,219.84832 400.86818,219.64833 C401.54818,216.40833 397.85734,215.78876 395.75734,214.58876 C391.79734,212.91876 389.42735,209.0586 388.02736,205.1786 C386.77736,198.4086 387.66741,191.49786 387.33741,184.66786 C387.41741,177.76786 387.34771,170.86815 387.34771,163.96815 C387.40771,159.53816 387.31731,155.10763 387.38721,150.67763 C387.35721,146.93762 387.36791,143.19864 387.35791,139.46864 C387.39791,134.39865 387.33841,129.32771 387.37841,124.25771 L387.2583,122.21865 C387.3883,122.15865 387.63781,122.0279 387.75781,121.9579 C389.7778,124.9379 392.08783,127.708 394.27783,130.558 C396.81783,133.768 399.30839,137.01864 401.85839,140.21864 C406.5184,146.19864 411.14791,152.19807 415.85791,158.13807 C419.78791,163.22807 423.73728,168.3078 427.71728,173.3578 C433.74728,180.9178 439.50722,188.72885 445.65722,196.18886 C450.66722,202.89886 455.94757,209.398 461.01757,216.058 C463.89757,219.728 467.06779,223.16852 470.48779,226.34852 C475.79779,230.83853 482.34816,234.22814 489.36816,234.69813 C488.40816,231.32813 485.98851,228.66751 484.47851,225.55751 L483.79736,225.26894 L484.1372,224.86757 C482.8972,220.51757 481.07728,216.32855 480.21728,211.86854 C479.52728,207.95855 479.01804,204.00872 478.74804,200.04872 C478.30804,192.12872 478.51775,184.18819 478.44775,176.25819 C478.48775,167.46819 478.43725,158.67782 478.42725,149.87782 C478.53725,141.66782 478.48755,108.28792 478.39795,102.97792 C478.14794,96.59792 480.43814,89.2878 486.59814,86.3578 C488.74814,85.07781 492.43857,84.55869 492.03857,81.25868 C481.80857,81.16868 471.57527,81.1224426 461.34277,81.1224426 L461.34291,81.1224426 Z"></path>
            <path d="M555.46645,51.3906398 C552.61864,51.40929 549.77037,51.61754 546.92787,52.07754 C532.93787,54.05754 519.55828,61.44779 511.34828,73.08779 C508.35828,77.49779 506.08795,82.36797 504.75795,87.51797 L504.80775,87.62783 C502.32775,97.53784 503.63794,108.07758 507.00794,117.61758 L507.11781,117.63808 C509.45781,124.12809 513.2574,130.02852 517.9474,135.07852 L518.09827,135.06822 C524.05828,140.96822 531.18855,145.58859 538.12855,150.19859 C552.34855,160.47859 567.31839,169.69831 581.21839,180.41832 C585.08839,183.99832 587.81731,188.71786 588.61732,193.95787 C588.72732,198.49786 588.1882,203.04794 586.51819,207.28795 C584.1882,212.29795 580.13802,216.46863 575.08802,218.73863 C569.27802,221.65863 562.60777,221.39758 556.32777,220.65757 C553.33777,220.16758 550.37839,219.51838 547.46839,218.72837 C541.73839,216.92837 536.34855,214.22878 531.37855,210.89878 C529.65855,209.55878 527.95822,208.21849 526.28821,206.84849 L523.92835,204.76841 C522.39835,203.19841 520.87855,201.62818 519.37855,200.02818 C516.24855,196.40818 513.37845,192.57845 510.77845,188.55845 C506.59845,182.48845 503.99743,175.41847 499.48744,169.57847 C497.76743,175.71847 497.81791,182.16814 497.7179,188.48814 C497.7579,190.41814 497.7579,192.35746 497.94788,194.28745 C498.25789,199.97746 499.00819,205.64787 500.26819,211.20787 C502.0182,218.23786 504.68746,225.28851 509.75746,230.61851 C517.16746,226.12851 526.58866,226.73746 534.49867,229.53745 C547.47866,233.69746 561.34829,234.63867 574.86829,233.27866 C581.14829,232.66867 587.29813,231.10879 593.20814,228.89878 C601.21814,225.53878 608.35802,220.09785 613.33802,212.93785 C617.81802,206.27785 620.59751,198.50797 621.56752,190.55797 L621.69788,190.63857 C622.26788,186.26857 622.44738,181.85791 622.42738,177.45791 C622.13737,168.09791 619.78828,158.7284 614.84827,150.70839 C611.78827,145.8884 607.94831,141.64835 603.88831,137.66836 C593.83831,129.26836 582.72745,122.26845 572.00746,114.76845 C562.27745,108.04845 552.31847,101.65857 542.79847,94.63857 C537.10847,90.03858 533.04855,82.9281 534.37855,75.4081 C535.35855,71.2681 537.39772,67.19799 541.03773,64.78799 C547.36773,60.46799 555.49779,60.34855 562.84779,61.11855 C572.23779,62.10855 581.09776,66.85764 587.07777,74.17764 L587.17737,74.16864 C591.04737,78.86864 593.2675,84.64753 596.81751,89.52753 C603.71751,94.53753 611.0082,99.62774 619.2882,101.99774 C619.41821,97.81775 617.71776,93.9476 616.32776,90.1076 C614.12776,84.44765 611.87804,78.79805 609.35804,73.27805 C606.23804,66.81806 602.58735,60.61766 598.65735,54.62766 C593.02735,57.33767 586.69854,56.1586 580.87854,54.8386 C572.54604,53.0161 564.00987,51.33979 555.46644,51.3906398 L555.46645,51.3906398 Z"></path>
            <path d="M689.18761,81.09756 C668.68764,81.31756 648.18789,80.90824 627.69789,81.29824 C627.50789,85.04824 631.99803,85.26769 634.33803,86.9877 C640.41803,90.7377 641.8275,98.53883 641.2975,105.14883 C641.3775,110.63883 641.2083,116.12832 641.3883,121.62832 L641.53772,122.2582 C641.26772,124.43821 641.24849,126.64854 641.33849,128.84854 C641.30849,137.29854 641.26799,145.74791 641.31799,154.20791 C641.29799,157.63791 641.09783,161.07843 641.65783,164.49843 L641.57723,163.83779 C641.67724,164.27779 641.87861,165.14828 641.9786,165.58828 C641.84861,165.76828 641.58833,166.14828 641.44833,166.33828 C641.10833,173.21828 641.36743,180.11869 641.29745,187.00869 C641.30745,192.02869 641.2979,197.05805 641.25795,202.09805 C641.04795,207.20805 639.3382,212.01769 637.5182,216.7377 L637.71742,217.39834 L637.10805,217.49794 C633.41805,224.11794 628.02826,229.45757 622.57826,234.61757 C639.54826,235.03757 654.01825,224.59837 670.28823,221.43837 C676.55823,220.41836 682.86768,219.58788 689.2477,219.68788 C690.36768,216.53788 686.5177,215.72831 684.45768,214.62831 C679.06765,212.27831 676.27863,206.31764 675.95868,200.69765 C675.92868,195.72764 676.05758,190.75872 675.91748,185.79872 C675.98718,180.93872 676.03763,176.06766 675.86798,171.21767 C675.96798,166.98767 679.40768,162.98759 683.81768,163.13759 C697.87763,163.15759 711.93758,162.97866 725.98755,163.23866 C727.09755,163.83866 728.23853,164.42866 729.48855,164.73866 C731.43855,166.96866 731.99843,169.82856 732.59843,172.63856 L731.98755,173.2787 C732.10755,173.6987 732.34808,174.55792 732.46808,174.97792 C731.79803,177.26792 732.16868,179.69751 732.14873,182.05751 C732.15873,188.12751 732.018,194.20749 732.17803,200.28749 C731.89805,205.96749 729.24845,212.06749 723.82843,214.53749 C721.68845,215.76749 717.9575,216.33782 718.59748,219.62782 C739.06753,219.70782 759.55865,219.78852 780.02863,219.59852 C781.32868,216.57852 777.45823,215.86772 775.56823,214.77773 C770.16823,212.56772 767.29768,206.76767 766.7777,201.21767 C766.7777,196.40766 766.8686,191.58749 766.6986,186.78749 C766.9086,179.46749 766.8183,172.12776 766.6881,164.81776 C766.9281,156.50776 766.79812,148.1788 766.6881,139.8788 C767.00812,128.6188 766.6378,117.35804 766.7775,106.09804 C766.7875,101.53804 766.51747,96.70848 768.79747,92.55849 C770.36745,89.20848 773.3682,86.78865 776.7882,85.46865 C778.3782,84.70864 781.4181,83.57843 779.95815,81.24843 C759.49815,81.07843 739.01775,81.06868 718.55775,81.25873 C718.10775,84.55874 721.87867,85.07811 724.01865,86.36811 C729.23865,88.78811 731.64742,94.60778 732.21742,100.02778 C732.03742,110.46778 732.21757,120.91785 732.10755,131.35785 C732.22755,133.94786 730.65795,136.07864 729.00795,137.90864 C727.35795,138.58863 725.68777,139.38877 723.86782,139.29877 C710.8278,139.31877 697.7979,139.29777 684.75795,139.30777 C681.36795,139.65778 678.38745,137.6384 676.54747,134.9484 C675.4275,129.0984 676.19737,123.10915 675.96742,117.20915 C675.95742,115.14914 675.94792,113.09827 675.92762,111.05827 C675.95762,109.39826 675.95762,107.73805 675.97712,106.08805 C675.36715,98.93805 676.72675,90.1092 683.80675,86.51921 C685.90675,85.1492 690.46712,84.57782 689.1871,81.09756 L689.18761,81.09756 Z"></path>
            <path d="M804.92784,130.19033 C803.20629,130.17823 801.48616,130.26793 799.76866,130.49795 C798.00871,130.64795 796.47766,131.53786 794.99769,132.39785 C795.87766,137.18785 796.70851,142.5882 794.10856,147.0082 C793.08856,148.9382 790.94754,149.80783 789.56754,151.37783 C784.85754,151.82783 779.64849,154.69857 777.31846,159.13857 C776.60851,159.98857 776.10759,162.03879 777.85756,161.85879 C792.04756,161.99879 806.24806,162.77856 820.33801,164.61855 C820.31771,162.70855 820.32801,160.80885 820.33801,158.91885 C820.33801,155.63885 820.32801,152.36879 820.33801,149.10879 C820.33801,143.42879 820.31771,137.75877 820.33801,132.08877 C815.26051,131.18877 810.09256,130.22689 804.92784,130.19033 L804.92784,130.19033 Z"></path>
            <path d="M864.88831,150.08877 C864.86801,158.77877 864.83731,167.46859 864.84711,176.15859 L865.14741,175.61806 C879.09741,181.19807 892.55713,188.01822 905.11716,196.27822 C900.77713,186.30822 894.62751,177.18774 887.47746,169.02774 C880.94751,161.61774 873.22813,155.32877 864.88813,150.08877 L864.88831,150.08877 Z"></path>
            <path d="M822.44011,81.0941269 C815.57514,81.10163 808.71534,81.18143 801.86784,81.44766 C801.89784,81.93766 801.96819,82.90858 801.99819,83.38858 C807.37816,86.24857 814.16776,86.20803 818.82774,90.57803 C823.32774,93.99803 824.77756,99.83818 824.12761,105.23818 C824.21761,120.21818 824.09831,135.19813 824.14791,150.17812 C824.19821,158.70813 824.00774,167.23894 824.19741,175.76895 C824.01741,179.23894 824.13741,182.70837 824.14791,186.18838 C824.09761,191.55838 824.23821,196.93752 823.98824,202.30752 C821.98821,209.72752 814.65734,213.91826 807.56736,215.31826 C805.31736,216.14826 801.35804,216.16861 801.53804,219.42861 C804.01806,219.72861 806.53829,219.75803 809.04831,219.57803 C809.71829,219.56803 811.06776,219.54843 811.73774,219.53853 C834.41774,219.89853 857.10733,219.56843 879.79731,219.70845 C881.26731,219.61845 884.26791,220.15773 883.62786,217.71774 C880.85788,215.51773 877.07766,215.43822 873.86766,214.21822 C869.15766,212.80822 865.04773,209.69826 862.50778,205.50826 L861.72846,205.34859 L861.96726,204.58834 C860.85726,200.28834 861.18823,195.83869 861.19821,191.44869 C861.18821,184.14869 861.15771,176.84781 861.18771,169.54782 C861.17771,160.01781 861.20721,150.49896 861.15691,140.97897 C861.23691,130.29897 861.17711,119.61844 861.16741,108.93844 C861.42736,104.15844 860.28796,98.90863 863.03798,94.63864 C866.11801,89.40864 872.00716,86.77826 877.71721,85.50826 C879.98716,84.66826 883.71833,84.66898 883.87831,81.49899 C874.86833,80.70898 865.79843,81.35889 856.76843,81.14889 C845.33724,81.27389 833.88136,81.08249 822.43989,81.0941269 L822.44011,81.0941269 Z"></path>
            <path d="M1120.7877,12.598537 C1112.1777,13.538534 1103.8285,16.228282 1095.3185,17.838284 C1072.1485,23.01828 1048.9482,28.08875 1025.7882,33.31875 C1024.4482,33.30875 1022.1086,35.16754 1023.9587,36.32754 C1029.3786,38.33754 1035.7283,38.84834 1039.8683,43.39834 C1045.4683,48.55834 1046.1377,56.53764 1045.7877,63.67764 C1045.6377,70.37764 1045.6877,77.08848 1045.7977,83.78848 C1045.6477,94.43848 1045.6677,105.09869 1045.7977,115.75869 C1045.5577,122.2987 1045.7877,128.84785 1045.7087,135.39785 C1035.5687,126.91786 1025.4673,118.37836 1015.3073,109.91836 C1004.8573,101.06836 994.32828,92.30818 983.84831,83.48818 C971.13828,72.76819 958.34838,62.13785 945.65838,51.39785 C932.05833,53.36785 918.47831,55.4576 904.86836,57.3876 C902.73828,58.0676 898.29843,57.10797 898.69841,60.51797 C902.12838,63.58797 907.42811,62.74842 911.37806,64.97842 C918.32808,68.00842 921.94796,75.78784 921.23793,83.12783 C921.14793,93.40783 921.14873,103.69891 921.20873,113.97891 C921.18843,122.68891 921.11873,131.40758 921.20873,140.11758 C921.15843,148.12758 921.13823,156.13834 921.18843,164.14834 C921.15843,171.18834 921.15763,178.22871 921.15763,185.27871 C921.45763,190.87871 921.10733,196.62769 918.55753,201.7377 C915.75756,206.8977 911.41828,211.21815 906.06831,213.69814 C903.71826,215.01814 900.88866,215.67762 898.98868,217.65762 C898.05868,220.08762 901.29801,219.77877 902.76801,219.83877 C908.84796,219.70877 914.94876,220.03859 921.02871,219.65859 L921.59856,219.65859 C937.61856,220.03859 953.66841,219.70819 969.70843,219.81826 C978.44841,219.62826 987.22813,220.19822 995.94816,219.52822 C997.57813,217.65822 994.87798,216.41796 993.51801,215.76797 C988.33798,213.50796 983.19861,210.7677 979.63858,206.2377 C975.43858,200.91769 973.48828,194.098537 974.08828,187.34853 C974.09828,181.91853 974.06798,176.4775 974.08828,171.0375 C974.09828,161.4175 974.07778,151.7881 974.07778,142.1581 C974.08778,134.06811 974.10778,125.97883 974.07778,117.89883 C974.10778,112.63883 974.06778,107.38858 974.08828,102.13858 C978.44833,105.73858 982.70878,109.43772 987.08878,113.00772 C993.94881,118.81771 1000.8087,124.62879 1007.7387,130.35879 C1020.3787,141.07879 1033.1385,151.6476 1045.7485,162.3876 C1045.7485,163.0776 1045.7375,164.45883 1045.7285,165.14883 C1046.0385,172.91883 1046.8385,180.77865 1049.1884,188.21865 C1050.4585,192.92865 1052.2283,197.50755 1054.4882,201.84756 C1057.0483,206.93756 1060.1888,211.7575 1063.9688,216.0375 C1071.6488,225.1175 1081.5786,232.29803 1092.5786,236.82803 C1094.4286,237.56802 1097.4193,238.34875 1098.2593,235.81875 C1099.0693,225.84875 1098.5093,215.79824 1098.5493,205.79824 C1098.8093,194.65824 1098.5283,183.50757 1098.6283,172.36758 C1098.5383,160.28757 1098.8591,148.18881 1098.4291,136.12881 C1098.8891,122.02881 1098.588,107.88871 1098.558,93.77871 C1098.778,77.70871 1098.558,61.62752 1098.6591,45.55752 C1099.0491,34.04752 1106.7594,23.97826 1116.2694,18.068264 C1117.9694,16.508264 1121.5485,15.468539 1120.7884,12.598537 L1120.7877,12.598537 Z"></path>
        </g>
        <g transform="translate(251.500000, 398.500000)" fill="#FFFFFF" fill-rule="nonzero">
            <path d="M41.79848,1.61758 C28.08848,1.71758 14.37739,1.53838 0.67739,1.70838 C0.85739,4.23839 3.91836,4.03812 5.67837,4.92811 C9.88836,6.10812 13.5784,9.92889 13.46841,14.4789 C13.49841,26.16889 13.48871,37.85872 13.47871,49.54872 C13.64871,54.14872 9.96746,58.0777 5.69746,59.25771 C3.87746,60.1177 1.00783,59.97813 0.57783,62.44813 C14.31783,62.76813 28.06758,62.46773 41.81758,62.6078 C43.48758,62.3678 45.7581,63.18885 46.85811,61.43886 C44.75811,60.27885 42.45822,59.60749 40.22822,58.78749 C36.49822,57.33749 33.56846,53.63847 33.71846,49.53846 C33.65846,38.52846 33.74736,27.51771 33.67746,16.50771 C33.51747,13.47771 34.06762,10.23798 36.33762,8.03798 C39.07762,4.89798 43.55742,4.82882 46.88742,2.64882 C45.60742,1.12881 43.48856,1.78757 41.79855,1.61757 L41.79848,1.61758 Z"></path>
            <path d="M127.1183,1.48867 C116.6583,1.90867 106.17791,1.41767 95.71791,1.7377 L95.9977,3.33877 C100.2777,4.98877 105.10829,7.47785 105.59828,12.64785 C105.93828,24.94785 105.66748,37.26802 105.73745,49.57803 C105.90744,54.03802 102.40871,57.89785 98.28872,59.14785 C96.31871,59.99785 93.66785,60.03892 92.65785,62.24893 C99.66785,62.97892 106.74848,62.37756 113.79848,62.59756 C115.81848,62.40756 118.25834,63.15879 119.90834,61.60879 C117.66834,59.78879 114.61745,58.74824 113.23745,56.04824 C111.72744,53.48824 111.66764,50.428 111.68764,47.55801 C111.75764,36.718 111.62774,25.88752 111.74774,15.05752 C114.03774,19.37752 115.41753,24.18875 118.02753,28.31875 L117.73749,29.21816 C118.04749,29.62816 118.65796,30.44879 118.96796,30.85879 C123.47796,41.59879 128.45829,52.13805 133.05829,62.84805 C135.97829,61.41805 137.59837,58.46783 138.88837,55.62783 C144.75837,42.49783 150.59751,29.34793 156.50751,16.22793 C156.53751,26.99793 156.48801,37.76799 156.52801,48.53799 C156.60801,51.93799 155.94789,55.66807 153.40789,58.11806 C151.83789,59.63806 148.94836,59.9677 148.63836,62.4877 C160.68836,62.70769 172.74802,62.4978 184.79803,62.60781 C186.46803,62.33781 188.82785,63.2581 189.86785,61.4081 C186.80785,59.61811 183.01752,59.34892 180.27752,56.99893 C178.08752,55.19893 176.6675,52.43828 176.7575,49.58828 C176.7275,37.88828 176.7187,26.18795 176.7485,14.49795 C176.6585,10.49795 179.03785,6.45895 182.83785,5.01895 C184.43785,4.15894 186.82838,3.91769 187.12838,1.7377 C176.94838,1.51769 166.7576,1.7488 156.5776,1.60879 C151.5676,12.49879 146.80814,23.49836 141.88814,34.41836 C136.89815,23.47836 132.15812,12.40867 127.11812,1.48867 L127.1183,1.48867 Z"></path>
            <path d="M242.40883,1.62754561 C241.00961,1.62283 239.60284,1.67563 238.38783,2.44814 C240.01784,3.73814 241.95827,4.49783 243.82826,5.37783 C247.24826,6.97783 249.24762,10.81871 249.16762,14.52871 C249.19762,26.18871 249.17762,37.85822 249.16762,49.52822 C249.35762,54.08822 245.74871,57.98791 241.53872,59.20791 C239.70872,60.12791 236.62852,59.91846 236.33852,62.51845 C251.63852,62.61846 266.93793,62.61868 282.23793,62.52875 C282.07793,60.19875 279.5476,60.20799 277.8976,59.49799 C273.8476,58.47799 270.03844,55.31897 269.50844,50.99897 C269.23844,46.88897 269.47834,42.76766 269.38832,38.65766 C276.14832,38.65766 283.18775,38.98856 289.55776,36.32856 C295.15775,34.15856 300.64771,30.31772 302.76772,24.46772 C304.62772,19.49772 302.84762,13.78836 299.18764,10.12836 C293.41764,4.22836 284.91852,1.75863 276.83852,1.65864 C265.82851,1.60864 254.80751,1.68784 243.79751,1.62754561 C243.34001,1.63784 242.87524,1.62984 242.40883,1.62754561 L242.40883,1.62754561 Z M269.41762,5.89785 C275.24762,6.22785 280.42871,10.4475 282.03871,16.0375 C283.70871,21.3175 281.75832,27.32815 277.63832,30.94814 C276.39832,31.55815 275.26735,32.32879 274.13734,33.10879 C272.59735,33.62879 271.02787,33.99793 269.42787,34.22793 C269.37787,24.77793 269.39767,15.33785 269.41757,5.89785 L269.41762,5.89785 Z"></path>
            <path d="M382.57826,0.18789 C383.46826,2.21789 384.36817,4.25826 385.22816,6.31826 C382.86817,11.42826 380.56804,16.55842 378.35805,21.72841 C377.91805,22.69842 377.46797,23.65881 377.02797,24.62881 C372.75797,34.1188 368.58847,43.64881 364.29847,53.12881 C363.03847,55.9588 360.70738,58.37842 357.67738,59.22841 C355.81738,60.08842 352.95859,59.97789 352.41859,62.43789 C359.86859,62.75789 367.33822,62.47779 374.78822,62.60781 C376.46822,62.36781 378.74779,63.19887 379.8478,61.43887 C376.95779,59.35887 371.57728,59.80752 370.82728,55.55752 C371.02729,50.85752 373.88784,46.8085 375.63783,42.55849 C384.24784,42.6985 392.85768,42.54759 401.47768,42.63759 C402.95767,46.28759 404.92799,49.75774 406.04799,53.54775 C406.78799,55.77774 405.53867,58.34817 403.24867,58.98817 C401.23867,60.05817 397.95808,59.77845 397.39809,62.51844 C410.99809,62.56844 424.60861,62.73762 438.20866,62.42764 C437.61864,59.97763 434.74809,60.06766 432.87804,59.19766 C429.51804,58.28765 427.20841,55.40799 425.96836,52.28799 C418.25844,34.91799 410.50846,17.55789 402.77845,0.18789 C396.03847,0.17789 389.30826,0.17789 382.57826,0.18789 L382.57826,0.18789 Z M388.48744,13.50772 C391.91744,21.22771 395.36822,28.92811 398.78822,36.6581 L378.18813,36.6581 C381.60813,28.9381 385.03744,21.21772 388.48744,13.50772 Z"></path>
            <path d="M522.74626,1.63315062 C515.86966,1.59909 509.00071,3.22842 503.03821,6.72841 C495.09819,11.24842 488.93851,19.28867 487.81846,28.48867 C487.02849,33.58867 488.19796,38.70817 489.98791,43.46816 C490.21794,43.79816 490.69861,44.45799 490.93861,44.78799 C496.34859,55.41799 508.13746,61.72865 519.79749,62.46865 C529.93749,63.12865 541.14856,60.72807 548.16856,52.86806 C550.61859,49.89806 553.24726,46.43857 553.07731,42.38857 C550.61731,44.80858 549.11821,48.06785 546.30826,50.14785 C537.92821,57.18785 524.40766,56.22785 516.68761,48.64785 C506.33761,38.75785 507.75736,19.47886 519.38731,11.18887 C526.70731,6.00886 537.59806,7.12842 543.87804,13.47841 C546.82809,16.12842 548.38861,19.84843 550.70866,22.99843 C551.61864,17.09844 551.22849,11.02765 550.06846,5.19766 C547.68849,5.39765 545.35839,6.03853 542.96836,6.09853 C540.18841,5.54854 537.62814,4.24863 534.93811,3.44863 C531.00061,2.27488 526.87216,1.65449 522.74626,1.63315062 Z"></path>
            <path d="M607.28821,1.63808 C607.26791,7.76809 607.31741,13.88894 607.25741,20.01895 C608.45741,20.13895 609.65831,20.02795 609.94834,18.59805 C611.25836,15.75805 612.34729,12.56851 615.15731,10.82851 C619.91734,7.34851 626.11751,8.7289 631.60751,8.47891 C631.59751,22.1789 631.62701,35.86777 631.59701,49.56777 C631.76704,54.21777 627.99836,58.15752 623.68834,59.30752 C621.90836,60.11752 619.15804,60.06859 618.65809,62.40859 C634.07809,62.58859 649.55741,62.91867 664.95738,62.23867 C662.85738,58.95867 657.99701,59.79772 655.36706,57.00772 C649.51706,52.19771 652.71783,43.92867 651.70788,37.48867 C651.69788,37.03867 651.67788,36.14863 651.65838,35.69863 C652.06833,26.63863 651.70868,17.5489 651.83853,8.47891 C657.75851,8.65891 664.73861,7.25855 669.43863,11.86855 C672.44861,14.08855 672.05868,18.88877 675.49871,20.58877 C676.66871,14.36877 675.72873,7.93808 676.01868,1.63808 C653.10873,1.62808 630.19826,1.64808 607.28824,1.63808 L607.28821,1.63808 Z"></path>
        </g>
    </g>
</svg>